# xmcd CD database file
#
# Track frame offsets:
#	150
#	16287
#	31669
#	53781
#	66676
#	80601
#	98426
#	114009
#	131694
#	150789
#
# Disc length: 2298 seconds
#
# Revision: 1
# Processed by: cddbd v1.5.2PL0 Copyright (c) Steve Scherf et al.
# Submitted via: CDex 1.51
#
DISCID=6c08f80a
DTITLE=Roberto Dalla Vecchia - Open Space
DYEAR=1998
DGENRE=Country
TTITLE0=Running Boy
TTITLE1=Hurry
TTITLE2=Long Walk Home
TTITLE3=Hondsome Molly
TTITLE4=Devil's Dream - Cripple Creek
TTITLE5=Peace of Mind
TTITLE6=Pack up and move on
TTITLE7=Athabasca Falls
TTITLE8=Crazy Game
TTITLE9=Open Space
EXTD=YEAR: 1998
EXTT0=
EXTT1=
EXTT2=
EXTT3=
EXTT4=
EXTT5=
EXTT6=
EXTT7=
EXTT8=
EXTT9=
PLAYORDER=
